<svg xmlns="http://www.w3.org/2000/svg" viewBox="0 0 504 139.815"><path d="M320.785,63.435l.021-.015a7.68,7.68,0,0,0,3.28-5.778,7.275,7.275,0,0,0-2.73-6.114q-2.731-2.118-7.8-2.118a20.2,20.2,0,0,0-5.382.719,12.575,12.575,0,0,0-4.036,1.759V64.7l12.657,0A6.711,6.711,0,0,0,320.785,63.435Z" style="fill:#00abd6"/><path d="M495.484,0,256.117,9.081l.217,41.975L217.2,70.932l39.3,11.662.188,36.372L504,139.815ZM334.178,92.849q-5.264,3.715-15.474,3.717-7.281,0-15.314-.48t-12.15-1.119V42.776a23,23,0,0,1,7.084-3.037,61.12,61.12,0,0,1,8.825-1.878,52.628,52.628,0,0,1,6.332-.52,42.351,42.351,0,0,1,11.793,1.4,21.65,21.65,0,0,1,7.637,3.756,12.931,12.931,0,0,1,4.077,5.555,18.481,18.481,0,0,1,1.187,6.474,16.876,16.876,0,0,1-1.978,8.193,17.982,17.982,0,0,1-5.462,6.113,14.66,14.66,0,0,1,5.026,3.358,11.723,11.723,0,0,1,2.889,4.716,16.5,16.5,0,0,1,.791,4.875Q339.441,89.133,334.178,92.849ZM401.21,77.5a28.5,28.5,0,0,1-5.184,9.991,23.747,23.747,0,0,1-8.786,6.674,29.1,29.1,0,0,1-12.109,2.4,32.076,32.076,0,0,1-9.419-1.479,22.822,22.822,0,0,1-8.824-5.155,24.694,24.694,0,0,1-6.055-8.433,36.275,36.275,0,0,1-2.691-8.991,51.906,51.906,0,0,1-.633-7.593,34.5,34.5,0,0,1,1.82-11.548,23.359,23.359,0,0,1,5.3-8.712,22.662,22.662,0,0,1,8.746-5.435,35.04,35.04,0,0,1,11.832-1.879A34.033,34.033,0,0,1,387,39.26a22.45,22.45,0,0,1,14.088,14.346,35.216,35.216,0,0,1,1.82,11.629A42.765,42.765,0,0,1,401.21,77.5Zm46.651,19.063-12.822-21.1-10.923,21.1-15.987-2.718,17.65-27.654L408.525,40.219l17.016-2.878,10.131,20.941L446.6,37.341l16.62,2.638L445.091,66.194l19.232,27.335Z" style="fill:#00abd6"/><path d="M316.172,74.664h-12.03V85.056q1.107.159,5.461.4t7.756.24c5.646,0,8.468-2.465,8.468-5.4C325.827,76.588,322.609,74.664,316.172,74.664Z" style="fill:#00abd6"/><path d="M375.21,49.57q-6.648,0-10.091,4.076t-3.443,11.589a30.021,30.021,0,0,0,1.583,10.51,13.719,13.719,0,0,0,4.551,6.394,12.086,12.086,0,0,0,7.4,2.2,11.822,11.822,0,0,0,7.242-2.2,14.443,14.443,0,0,0,4.67-6.434,28.21,28.21,0,0,0,1.7-10.47q0-7.514-3.482-11.589T375.21,49.57Z" style="fill:#00abd6"/><path d="M48.166,84.105C47.077,65.59,23.66,63.293,23.592,63.291l-.523-.018s21.384-3.687,22.053-20.8c.244-6.249-1.5-11.4-5.182-15.3-4.662-4.949-12.41-7.676-22.409-7.886-.251-.006-.512-.009-.78-.011-4.617-.035-12.052.424-16.751.9C.891,44.5,1.292,78.032,1.05,107.816H13.57c.468,0,.929-.021,1.389-.017,10.789.081,18.648-1.579,24.025-5.218C44.933,98.555,48.763,93.154,48.166,84.105Z" style="fill:#1d4d7a"/><path d="M194.088,71.526l.269-.22c.133-.109,23.89-17.669,40.635-30.546l-7.832-13.4L186.742,40.406l-.112-21.3h-18.6s1.535,50.824,0,88.7h20.928a148.042,148.042,0,0,1-1.807-15.53l-.017-.749,37.233,16.051,8.742-11.129c-14.774-9.473-37.722-23.671-38.774-24.685Z" style="fill:#1d4d7a"/><path d="M63.888,19.192c-3.527,27.94-10.582,63.55-15.92,88.516h17.8l5.517-27.55,8.9-1.764.062.306c.04.2,3.792,18.822,7.174,31.078l18.255-.219C99.39,87.037,93.665,47.941,89.734,19.192Z" style="fill:#1d4d7a"/><path d="M144.871,67.642l.211-.15a11.239,11.239,0,0,0,1.11-.9,26.766,26.766,0,0,0,10.951-21.375c0-21.624-17.892-26.114-31.972-26.114a145.331,145.331,0,0,0-16.642.868C109.6,52.1,110.12,80,110.124,107.71h16.8c-.006-9.206-.236-16.488-.459-23.428-.128-3.962-.188-6.041-.271-9.948l1.313-.029c2.106,4.223,14.065,25.569,23.927,35.4l13.864-8.673c-9.431-11.256-17.508-27.1-20.317-33.152Z" style="fill:#1d4d7a"/></svg>